<svg xmlns="http://www.w3.org/2000/svg" width="336" height="84" fill="none"><path fill="#fff" d="M35.473 68.072H11.538L5.925 83.195H0l20.972-54.574h2.651c1.715 0 2.962 1.04 3.742 3.119l12.006 31.498h.078v.156l7.563 19.801h-5.925l-5.614-15.124Zm-22.142-4.834H33.68L23.545 36.108h-.078L13.331 63.239ZM54.688 44.293h5.459v6.003c1.038-1.82 2.599-3.3 4.678-4.444 2.13-1.144 4.34-1.715 6.626-1.715h3.43v5.067h-3.43c-3.326 0-6.03 1.066-8.108 3.197-2.028 2.08-3.04 4.86-3.04 8.342v22.453h-5.614V44.293ZM97.761 83.82c-1.715 0-3.534-.52-5.457-1.558-1.924-1.093-3.405-2.444-4.444-4.055v4.99h-5.458V28.621h5.613v20.27a12.39 12.39 0 0 1 4.366-3.82c1.82-.935 3.691-1.403 5.614-1.403h5.535c2.651 0 4.99.624 7.017 1.872 2.079 1.195 3.69 2.91 4.834 5.145 1.195 2.182 1.793 4.703 1.793 7.563v10.056c0 3.067-.598 5.77-1.793 8.11-1.144 2.338-2.781 4.157-4.912 5.456-2.079 1.3-4.496 1.95-7.251 1.95h-5.457Zm5.302-4.988c2.494 0 4.521-.962 6.081-2.885 1.611-1.975 2.417-4.523 2.417-7.642V58.248c0-2.858-.78-5.171-2.339-6.938-1.508-1.768-3.457-2.652-5.848-2.652h-5.223c-2.703 0-5.016.989-6.939 2.963-1.923 1.975-2.989 4.575-3.197 7.796v9.513c.104 1.819.624 3.481 1.56 4.99.935 1.507 2.131 2.703 3.586 3.585 1.455.885 2.99 1.327 4.6 1.327h5.302ZM140.417 83.82c-4.366 0-7.874-1.35-10.525-4.054-2.651-2.703-3.976-6.263-3.976-10.68V58.403c0-4.418 1.325-7.978 3.976-10.68 2.703-2.704 6.263-4.055 10.681-4.055h6.393c4.418 0 7.952 1.351 10.603 4.054 2.703 2.703 4.054 6.263 4.054 10.681v10.681c0 4.418-1.351 7.978-4.054 10.681-2.703 2.703-6.289 4.054-10.759 4.054h-6.393Zm6.393-4.989c2.807 0 5.042-.884 6.705-2.65 1.663-1.82 2.495-4.185 2.495-7.096v-10.68c0-2.912-.832-5.25-2.495-7.018-1.663-1.819-3.846-2.729-6.549-2.729h-6.393c-2.703 0-4.886.91-6.549 2.73-1.663 1.766-2.495 4.105-2.495 7.016v10.681c0 2.963.806 5.328 2.417 7.095 1.611 1.767 3.768 2.651 6.471 2.651h6.393ZM182.698 83.197c-3.846 0-6.601-.806-8.264-2.416-1.663-1.665-2.495-4.393-2.495-8.188v-43.97h5.613v43.97c0 1.975.39 3.406 1.17 4.288.831.885 2.157 1.326 3.976 1.326h2.651v4.99h-2.651ZM194.204 44.293h5.613v38.904h-5.613V44.293ZM228.335 83.197c-4.106 0-7.069-.883-8.888-2.65-1.767-1.767-2.651-4.678-2.651-8.732V49.283h-6.861v-4.99h6.861V32.52h5.613v11.773h10.136v4.99h-10.136v22.532c0 2.287.442 3.924 1.326 4.91.935.989 2.469 1.483 4.6 1.483h4.21v4.989h-4.21ZM247.032 38.446c-1.247 0-2.261-.39-3.04-1.17-.78-.78-1.17-1.793-1.17-3.04 0-1.248.39-2.261 1.17-3.041.779-.78 1.793-1.17 3.04-1.17 1.248 0 2.261.39 3.041 1.17.78.78 1.169 1.793 1.169 3.04 0 1.248-.389 2.261-1.169 3.041-.78.78-1.793 1.17-3.041 1.17Zm-2.806 5.847h5.613v38.903h-5.613V44.293ZM275.706 83.82c-4.262 0-7.693-1.273-10.291-3.82-2.599-2.599-3.899-6.029-3.899-10.29V58.56c0-4.47 1.3-8.056 3.899-10.759 2.598-2.755 6.003-4.132 10.213-4.132h6.393c4.002 0 7.225 1.117 9.667 3.352 2.443 2.235 3.665 5.172 3.665 8.81h-5.458c0-2.13-.727-3.846-2.183-5.146-1.403-1.35-3.3-2.027-5.691-2.027h-6.393c-2.547 0-4.6.91-6.159 2.73-1.56 1.818-2.339 4.21-2.339 7.172v11.15c0 2.753.779 4.962 2.339 6.626 1.611 1.663 3.69 2.495 6.237 2.495h6.393c2.443 0 4.392-.858 5.847-2.573 1.508-1.716 2.261-4.002 2.261-6.86h5.458c0 4.313-1.248 7.795-3.743 10.446-2.494 2.651-5.769 3.976-9.823 3.976h-6.393ZM315.946 83.82c-3.95 0-7.121-1.117-9.512-3.352s-3.586-5.172-3.586-8.81h5.457c0 2.183.702 3.95 2.105 5.301 1.404 1.352 3.249 2.027 5.536 2.027h6.783c2.235 0 4.054-.44 5.457-1.325 1.403-.936 2.105-2.13 2.105-3.586v-2.65c0-.989-.39-1.846-1.169-2.574-.78-.78-1.794-1.299-3.041-1.559l-13.488-2.339c-2.703-.468-4.886-1.48-6.549-3.04-1.611-1.612-2.417-3.483-2.417-5.614v-2.573c0-3.015 1.144-5.43 3.431-7.25 2.287-1.871 5.301-2.807 9.044-2.807h6.705c3.638 0 6.574 1.04 8.809 3.118 2.235 2.027 3.353 4.73 3.353 8.11h-5.458c-.052-1.925-.701-3.458-1.949-4.6-1.195-1.197-2.78-1.795-4.755-1.795h-6.705c-2.079 0-3.743.494-4.99 1.482-1.248.935-1.871 2.183-1.871 3.742v2.261c0 .988.416 1.871 1.247 2.651.884.78 2.001 1.273 3.353 1.481l13.409 2.34c2.599.467 4.678 1.48 6.238 3.04 1.611 1.56 2.416 3.43 2.416 5.613v3.12c0 2.857-1.221 5.17-3.664 6.937-2.391 1.768-5.561 2.651-9.511 2.651h-6.783Z"/><path fill="#fff" d="M210.383 21.608c-4.537 2.92-12.137 14.989-12.137 14.989l-.001.003c8.534 1.868 19.821-3.876 26.622-10.634C231.668 19.21 232.175 0 232.175 0s-31.391 7.527-37.028 19.488c-5.175 10.979-2.794 16.659-1.862 16.869 1.064.24 2.452-1.16 2.452-1.16 6.412-11.48 19.183-16.509 14.646-13.589Z"/></svg>